Format : AVI
Format/Info : Audio Video Interleave
File size : 1.75 GiB
Duration : 1h 56mn
Overall bit rate : 2 153 Kbps
Writing application : VirtualDubMod 1.5.10.2 (build 2540/release)
Writing library : VirtualDubMod build 2540/release

Video
ID : 0
Format : MPEG-4 Visual
Format profile : Advanced Simple@L5
Format settings, BVOP : 2
Format settings, QPel : No
Format settings, GMC : No warppoints
Format settings, Matrix : Default (H.263)
Muxing mode : Packed bitstream
Codec ID : XVID
Codec ID/Hint : XviD
Duration : 1h 56mn
Bit rate : 1 951 Kbps
Width : 720 pixels
Height : 246 pixels
Display aspect ratio : 2.927
Frame rate : 23.976 fps
Color space : YUV
Chroma subsampling : 4:2:0
Bit depth : 8 bits
Scan type : Progressive
Compression mode : Lossy
Bits/(Pixel*Frame) : 0.459
Stream size : 1.59 GiB (91%)
Writing library : XviD 64

Audio
ID : 1
Format : AC-3
Format/Info : Audio Coding 3
Mode extension : CM (complete main)
Codec ID : 2000
Duration : 1h 56mn
Bit rate mode : Constant
Bit rate : 192 Kbps
Channel(s) : 2 channels
Channel positions : Front: L R
Sampling rate : 48.0 KHz
Bit depth : 16 bits
Compression mode : Lossy
Stream size : 160 MiB (9%)
Alignment : Split accross interleaves
Interleave, duration : 42 ms (1.00 video frame)
Interleave, preload duration : 500 ms








 
http://www.imdb.com/title/tt1448755/



Plot or Synopsis
Based on a true story, Killer Elite pits two of the worlds' most elite operatives - Danny, an ex-special ops agent (Jason Statham) and Hunter, his longtime mentor (Robert De Niro) - against the cunning leader of a secret military society ('Clive Owen' ).
Covering the globe from Australia to Paris, London and the Middle East, Danny and Hunter are plunged into a highly dangerous game of cat and mouse - where the predators become the prey.
